<svg height="140" width="350" xmlns="http://www.w3.org/2000/svg"><g fill="none" fill-rule="evenodd"><path d="m61.905-34.23 96.194 54.51-66.982 54.512-69.117-39.905z" fill="#f04141"/><circle cx="155.5" cy="135.5" fill="#10dc60" r="57.5"/><path d="m208.538 9.513 84.417 15.392-69.025 69.025z" fill="#3880ff"/><path d="m268.625 106.557 46.332-26.75 46.332 26.75v53.5l-46.332 26.75-46.332-26.75z" fill="#ffce00"/><circle cx="299.5" cy="9.5" fill="#7044ff" r="38.5"/><rect fill="#11d3ea" height="89.884" rx="5.098" transform="matrix(.5 -.8660254 .8660254 .5 41.424762 147.521792)" width="10.196" x="143.372" y="-7.056"/><path d="m-25.389 74.253 84.86 8.107c5.498.525 9.53 5.407 9.004 10.905a10 10 0 0 1 -.057.477l-12.36 85.671a10.002 10.002 0 0 1 -11.634 8.42l-86.351-15.226c-5.44-.959-9.07-6.145-8.112-11.584l13.851-78.551a10 10 0 0 1 10.799-8.219z" fill="#7044ff"/><circle cx="273.5" cy="106.5" fill="#0cd1e8" r="20.5"/></g></svg>